<svg viewBox="0 0 24 24" fill="#D4AF37" width="24" height="24" xmlns="http://www.w3.org/2000/svg" xmlns:xlink="http://www.w3.org/1999/xlink">
    <path d="M6.516 14.323l-1.49 6.452a0.998 0.998 0 0 0 1.529 1.057L12 18.202l5.445 3.63a1.001 1.001 0 0 0 1.517-1.106l-1.829-6.4 4.536-4.082a1 1 0 0 0-0.59-1.74L15.378 8.05 12.911 2.589a0.998 0.998 0 0 0-1.822 0L8.622 8.05 2.921 8.503a1 1 0 0 0-0.619 1.713zM9.369 9.997a0.998 0.998 0 0 0 0.832-0.586L12 5.43l1.799 3.981a0.998 0.998 0 0 0 0.832 0.586l3.972 0.315-3.271 2.944c-0.284 0.256-0.397 0.65-0.293 1.018l1.253 4.385-3.736-2.491a0.995 0.995 0 0 0-1.109 0l-3.904 2.603 1.05-4.546a1 1 0 0 0-0.276-0.94l-3.038-2.962z" />
</svg>